<svg width="840" height="320" viewBox="0 0 840 320" fill="none" xmlns="http://www.w3.org/2000/svg">
  <defs>
    <linearGradient id="bg3" x1="0" y1="0" x2="840" y2="320" gradientUnits="userSpaceOnUse">
      <stop offset="0%" stop-color="#050816"/>
      <stop offset="100%" stop-color="#05081a"/>
    </linearGradient>
    <linearGradient id="tileU" x1="0" y1="0" x2="0" y2="1" gradientUnits="objectBoundingBox">
      <stop offset="0%" stop-color="#5B8CFF" stop-opacity="0.12"/>
      <stop offset="100%" stop-color="#7C4DFF" stop-opacity="0.06"/>
    </linearGradient>
    <filter id="glow3" x="-30%" y="-30%" width="160%" height="160%">
      <feGaussianBlur stdDeviation="3" result="b"/>
      <feMerge><feMergeNode in="b"/><feMergeNode in="SourceGraphic"/></feMerge>
    </filter>
    <filter id="sg3" x="-5%" y="-5%" width="110%" height="110%">
      <feGaussianBlur stdDeviation="1.5" result="b"/>
      <feMerge><feMergeNode in="b"/><feMergeNode in="SourceGraphic"/></feMerge>
    </filter>
    <filter id="glowTile" x="-10%" y="-10%" width="120%" height="120%">
      <feGaussianBlur stdDeviation="2" result="b"/>
      <feMerge><feMergeNode in="b"/><feMergeNode in="SourceGraphic"/></feMerge>
    </filter>
  </defs>

  <!-- Background -->
  <rect width="840" height="320" rx="10" fill="url(#bg3)"/>
  <rect width="840" height="320" rx="10" fill="none" stroke="#00E5FF" stroke-width="0.8" opacity="0.18"/>
  <rect y="0" width="840" height="2" rx="1" fill="#00E5FF" filter="url(#sg3)"/>

  <!-- Corner brackets — cyan theme -->
  <path d="M1 32 L1 1 L32 1" fill="none" stroke="#00E5FF" stroke-width="1.8" filter="url(#glow3)"/>
  <path d="M808 1 L839 1 L839 32" fill="none" stroke="#00E5FF" stroke-width="1.8" filter="url(#glow3)"/>
  <path d="M1 288 L1 319 L32 319" fill="none" stroke="#00E5FF" stroke-width="1.8" filter="url(#glow3)"/>
  <path d="M808 319 L839 319 L839 288" fill="none" stroke="#00E5FF" stroke-width="1.8" filter="url(#glow3)"/>

  <!-- Header -->
  <text x="28" y="34" font-family="'Courier New',monospace" font-size="9" fill="#00E5FF" letter-spacing="5" opacity="0.6">A C H I E V E M E N T   L O G</text>

  <!-- Divider -->
  <line x1="28" y1="46" x2="812" y2="46" stroke="#00E5FF" stroke-width="0.4" opacity="0.15"/>

  <!--
    Layout: 4 columns, 3 rows
    Col x: 28, 228, 428, 628  (tile w=184, gap=16)
    Row y: 56, 148, 240        (tile h=76, gap=16)

    ROW 0 — All unlocked
    ROW 1 — 3 unlocked + 1 locked
    ROW 2 — All locked (3 items, last slot empty)
  -->

  <!-- ══ ROW 0 ══════════════════════════════════════════════════ -->

  <!-- [0,0] SWE Intern — UNLOCKED -->
  <rect x="28" y="56" width="184" height="76" rx="7" fill="url(#tileU)"/>
  <rect x="28" y="56" width="184" height="76" rx="7" fill="none" stroke="#5B8CFF" stroke-width="1" opacity="0.5" filter="url(#glowTile)"/>
  <rect x="28" y="56" width="184" height="2" rx="1" fill="#5B8CFF" opacity="0.6"/>
  <text x="120" y="88" font-family="'Courier New',monospace" font-size="12" fill="#e6edf3" text-anchor="middle" font-weight="600">SWE Intern</text>
  <text x="120" y="106" font-family="'Courier New',monospace" font-size="8.5" fill="#5B8CFF" text-anchor="middle" letter-spacing="2" opacity="0.7">UNLOCKED</text>
  <circle cx="198" cy="66" r="5" fill="#5B8CFF" opacity="0.8" filter="url(#sg3)"/>
  <text x="198" y="69.5" font-family="'Courier New',monospace" font-size="7" fill="#050816" text-anchor="middle" font-weight="700">!</text>

  <!-- [0,1] Open Source — UNLOCKED -->
  <rect x="228" y="56" width="184" height="76" rx="7" fill="url(#tileU)"/>
  <rect x="228" y="56" width="184" height="76" rx="7" fill="none" stroke="#5B8CFF" stroke-width="1" opacity="0.5" filter="url(#glowTile)"/>
  <rect x="228" y="56" width="184" height="2" rx="1" fill="#5B8CFF" opacity="0.6"/>
  <text x="320" y="88" font-family="'Courier New',monospace" font-size="12" fill="#e6edf3" text-anchor="middle" font-weight="600">Open Source</text>
  <text x="320" y="106" font-family="'Courier New',monospace" font-size="8.5" fill="#5B8CFF" text-anchor="middle" letter-spacing="2" opacity="0.7">UNLOCKED</text>
  <circle cx="398" cy="66" r="5" fill="#5B8CFF" opacity="0.8" filter="url(#sg3)"/>
  <text x="398" y="69.5" font-family="'Courier New',monospace" font-size="7" fill="#050816" text-anchor="middle" font-weight="700">!</text>

  <!-- [0,2] MERN Developer — UNLOCKED -->
  <rect x="428" y="56" width="184" height="76" rx="7" fill="url(#tileU)"/>
  <rect x="428" y="56" width="184" height="76" rx="7" fill="none" stroke="#5B8CFF" stroke-width="1" opacity="0.5" filter="url(#glowTile)"/>
  <rect x="428" y="56" width="184" height="2" rx="1" fill="#5B8CFF" opacity="0.6"/>
  <text x="520" y="88" font-family="'Courier New',monospace" font-size="12" fill="#e6edf3" text-anchor="middle" font-weight="600">MERN Developer</text>
  <text x="520" y="106" font-family="'Courier New',monospace" font-size="8.5" fill="#5B8CFF" text-anchor="middle" letter-spacing="2" opacity="0.7">UNLOCKED</text>
  <circle cx="598" cy="66" r="5" fill="#5B8CFF" opacity="0.8" filter="url(#sg3)"/>
  <text x="598" y="69.5" font-family="'Courier New',monospace" font-size="7" fill="#050816" text-anchor="middle" font-weight="700">!</text>

  <!-- [0,3] Problem Solver — UNLOCKED -->
  <rect x="628" y="56" width="184" height="76" rx="7" fill="url(#tileU)"/>
  <rect x="628" y="56" width="184" height="76" rx="7" fill="none" stroke="#5B8CFF" stroke-width="1" opacity="0.5" filter="url(#glowTile)"/>
  <rect x="628" y="56" width="184" height="2" rx="1" fill="#5B8CFF" opacity="0.6"/>
  <text x="720" y="88" font-family="'Courier New',monospace" font-size="12" fill="#e6edf3" text-anchor="middle" font-weight="600">Problem Solver</text>
  <text x="720" y="106" font-family="'Courier New',monospace" font-size="8.5" fill="#5B8CFF" text-anchor="middle" letter-spacing="2" opacity="0.7">UNLOCKED</text>
  <circle cx="798" cy="66" r="5" fill="#5B8CFF" opacity="0.8" filter="url(#sg3)"/>
  <text x="798" y="69.5" font-family="'Courier New',monospace" font-size="7" fill="#050816" text-anchor="middle" font-weight="700">!</text>

  <!-- ══ ROW 1 ══════════════════════════════════════════════════ -->

  <!-- [1,0] React Expert — UNLOCKED -->
  <rect x="28" y="148" width="184" height="76" rx="7" fill="url(#tileU)"/>
  <rect x="28" y="148" width="184" height="76" rx="7" fill="none" stroke="#7C4DFF" stroke-width="1" opacity="0.5" filter="url(#glowTile)"/>
  <rect x="28" y="148" width="184" height="2" rx="1" fill="#7C4DFF" opacity="0.6"/>
  <text x="120" y="180" font-family="'Courier New',monospace" font-size="12" fill="#e6edf3" text-anchor="middle" font-weight="600">React Expert</text>
  <text x="120" y="198" font-family="'Courier New',monospace" font-size="8.5" fill="#7C4DFF" text-anchor="middle" letter-spacing="2" opacity="0.7">UNLOCKED</text>
  <circle cx="198" cy="158" r="5" fill="#7C4DFF" opacity="0.8" filter="url(#sg3)"/>
  <text x="198" y="161.5" font-family="'Courier New',monospace" font-size="7" fill="#ffffff" text-anchor="middle" font-weight="700">!</text>

  <!-- [1,1] Docker Captain — UNLOCKED -->
  <rect x="228" y="148" width="184" height="76" rx="7" fill="url(#tileU)"/>
  <rect x="228" y="148" width="184" height="76" rx="7" fill="none" stroke="#7C4DFF" stroke-width="1" opacity="0.5" filter="url(#glowTile)"/>
  <rect x="228" y="148" width="184" height="2" rx="1" fill="#7C4DFF" opacity="0.6"/>
  <text x="320" y="180" font-family="'Courier New',monospace" font-size="12" fill="#e6edf3" text-anchor="middle" font-weight="600">Docker Captain</text>
  <text x="320" y="198" font-family="'Courier New',monospace" font-size="8.5" fill="#7C4DFF" text-anchor="middle" letter-spacing="2" opacity="0.7">UNLOCKED</text>
  <circle cx="398" cy="158" r="5" fill="#7C4DFF" opacity="0.8" filter="url(#sg3)"/>
  <text x="398" y="161.5" font-family="'Courier New',monospace" font-size="7" fill="#ffffff" text-anchor="middle" font-weight="700">!</text>

  <!-- [1,2] Redis Master — UNLOCKED -->
  <rect x="428" y="148" width="184" height="76" rx="7" fill="url(#tileU)"/>
  <rect x="428" y="148" width="184" height="76" rx="7" fill="none" stroke="#7C4DFF" stroke-width="1" opacity="0.5" filter="url(#glowTile)"/>
  <rect x="428" y="148" width="184" height="2" rx="1" fill="#7C4DFF" opacity="0.6"/>
  <text x="520" y="180" font-family="'Courier New',monospace" font-size="12" fill="#e6edf3" text-anchor="middle" font-weight="600">Redis Master</text>
  <text x="520" y="198" font-family="'Courier New',monospace" font-size="8.5" fill="#7C4DFF" text-anchor="middle" letter-spacing="2" opacity="0.7">UNLOCKED</text>
  <circle cx="598" cy="158" r="5" fill="#7C4DFF" opacity="0.8" filter="url(#sg3)"/>
  <text x="598" y="161.5" font-family="'Courier New',monospace" font-size="7" fill="#ffffff" text-anchor="middle" font-weight="700">!</text>

  <!-- [1,3] AWS Expert — LOCKED -->
  <rect x="628" y="148" width="184" height="76" rx="7" fill="#ffffff" fill-opacity="0.02"/>
  <rect x="628" y="148" width="184" height="76" rx="7" fill="none" stroke="#ffffff" stroke-width="0.7" opacity="0.1"/>
  <text x="720" y="180" font-family="'Courier New',monospace" font-size="12" fill="#c9d1d9" text-anchor="middle" opacity="0.25">AWS Expert</text>
  <text x="720" y="198" font-family="'Courier New',monospace" font-size="9" fill="#ffffff" text-anchor="middle" opacity="0.18" letter-spacing="2">LOCKED</text>

  <!-- ══ ROW 2 ══════════════════════════════════════════════════ -->

  <!-- [2,0] Kubernetes — LOCKED -->
  <rect x="28" y="240" width="184" height="76" rx="7" fill="#ffffff" fill-opacity="0.02"/>
  <rect x="28" y="240" width="184" height="76" rx="7" fill="none" stroke="#ffffff" stroke-width="0.7" opacity="0.1"/>
  <text x="120" y="272" font-family="'Courier New',monospace" font-size="12" fill="#c9d1d9" text-anchor="middle" opacity="0.25">Kubernetes</text>
  <text x="120" y="290" font-family="'Courier New',monospace" font-size="9" fill="#ffffff" text-anchor="middle" opacity="0.18" letter-spacing="2">LOCKED</text>

  <!-- [2,1] Staff Engineer — LOCKED -->
  <rect x="228" y="240" width="184" height="76" rx="7" fill="#ffffff" fill-opacity="0.02"/>
  <rect x="228" y="240" width="184" height="76" rx="7" fill="none" stroke="#ffffff" stroke-width="0.7" opacity="0.1"/>
  <text x="320" y="272" font-family="'Courier New',monospace" font-size="12" fill="#c9d1d9" text-anchor="middle" opacity="0.25">Staff Engineer</text>
  <text x="320" y="290" font-family="'Courier New',monospace" font-size="9" fill="#ffffff" text-anchor="middle" opacity="0.18" letter-spacing="2">LOCKED</text>

  <!-- [2,2] OSS Maintainer — LOCKED -->
  <rect x="428" y="240" width="184" height="76" rx="7" fill="#ffffff" fill-opacity="0.02"/>
  <rect x="428" y="240" width="184" height="76" rx="7" fill="none" stroke="#ffffff" stroke-width="0.7" opacity="0.1"/>
  <text x="520" y="272" font-family="'Courier New',monospace" font-size="12" fill="#c9d1d9" text-anchor="middle" opacity="0.25">OSS Maintainer</text>
  <text x="520" y="290" font-family="'Courier New',monospace" font-size="9" fill="#ffffff" text-anchor="middle" opacity="0.18" letter-spacing="2">LOCKED</text>

  <!-- [2,3] Future — decorative -->
  <rect x="628" y="240" width="184" height="76" rx="7" fill="#ffffff" fill-opacity="0.01"/>
  <rect x="628" y="240" width="184" height="76" rx="7" fill="none" stroke="#ffffff" stroke-width="0.5" opacity="0.06" stroke-dasharray="4 4"/>
  <text x="720" y="278" font-family="'Courier New',monospace" font-size="18" fill="#ffffff" text-anchor="middle" opacity="0.1">?</text>
</svg>
